<svg width="3296" height="1843" xmlns="http://www.w3.org/2000/svg" xmlns:xlink="http://www.w3.org/1999/xlink" overflow="hidden"><defs><clipPath id="clip0"><rect x="421" y="1599" width="3296" height="1843"/></clipPath><clipPath id="clip1"><rect x="426" y="1604" width="3286" height="1833"/></clipPath><clipPath id="clip2"><rect x="426" y="1604" width="3286" height="1833"/></clipPath><clipPath id="clip3"><rect x="426" y="1604" width="3286" height="1833"/></clipPath><clipPath id="clip4"><rect x="426" y="1604" width="3286" height="1833"/></clipPath><clipPath id="clip5"><rect x="557" y="1654" width="2767" height="1604"/></clipPath><clipPath id="clip6"><rect x="426" y="1604" width="3286" height="1833"/></clipPath><clipPath id="clip7"><rect x="557" y="1654" width="2767" height="1604"/></clipPath><clipPath id="clip8"><rect x="426" y="1604" width="3286" height="1833"/></clipPath><clipPath id="clip9"><rect x="557" y="1654" width="2767" height="1604"/></clipPath><clipPath id="clip10"><rect x="426" y="1604" width="3286" height="1833"/></clipPath><clipPath id="clip11"><rect x="557" y="1654" width="2767" height="1604"/></clipPath><clipPath id="clip12"><rect x="426" y="1604" width="3286" height="1833"/></clipPath><clipPath id="clip13"><rect x="426" y="1604" width="3286" height="1833"/></clipPath><clipPath id="clip14"><rect x="426" y="1604" width="3286" height="1833"/></clipPath><clipPath id="clip15"><rect x="426" y="1604" width="3286" height="1833"/></clipPath><clipPath id="clip16"><rect x="426" y="1604" width="3286" height="1833"/></clipPath><clipPath id="clip17"><rect x="426" y="1604" width="3286" height="1833"/></clipPath><clipPath id="clip18"><rect x="426" y="1604" width="3286" height="1833"/></clipPath><clipPath id="clip19"><rect x="426" y="1604" width="3286" height="1833"/></clipPath><clipPath id="clip20"><rect x="426" y="1604" width="3286" height="1833"/></clipPath><clipPath id="clip21"><rect x="426" y="1604" width="3286" height="1833"/></clipPath><clipPath id="clip22"><rect x="426" y="1604" width="3286" height="1833"/></clipPath><clipPath id="clip23"><rect x="426" y="1604" width="3286" height="1833"/></clipPath><clipPath id="clip24"><rect x="426" y="1604" width="3286" height="1833"/></clipPath><clipPath id="clip25"><rect x="426" y="1604" width="3286" height="1833"/></clipPath><clipPath id="clip26"><rect x="426" y="1604" width="3286" height="1833"/></clipPath><clipPath id="clip27"><rect x="426" y="1604" width="3286" height="1833"/></clipPath><clipPath id="clip28"><rect x="426" y="1604" width="3286" height="1833"/></clipPath><clipPath id="clip29"><rect x="426" y="1604" width="3286" height="1833"/></clipPath><clipPath id="clip30"><rect x="426" y="1604" width="3286" height="1833"/></clipPath><clipPath id="clip31"><rect x="426" y="1604" width="3286" height="1833"/></clipPath><clipPath id="clip32"><rect x="426" y="1604" width="3286" height="1833"/></clipPath><clipPath id="clip33"><rect x="426" y="1604" width="3286" height="1833"/></clipPath><clipPath id="clip34"><rect x="426" y="1604" width="3286" height="1833"/></clipPath><clipPath id="clip35"><rect x="426" y="1604" width="3286" height="1833"/></clipPath><clipPath id="clip36"><rect x="426" y="1604" width="3286" height="1833"/></clipPath><clipPath id="clip37"><rect x="426" y="1604" width="3286" height="1833"/></clipPath><clipPath id="clip38"><rect x="426" y="1604" width="3286" height="1833"/></clipPath><clipPath id="clip39"><rect x="426" y="1604" width="3286" height="1833"/></clipPath><clipPath id="clip40"><rect x="426" y="1604" width="3286" height="1833"/></clipPath><clipPath id="clip41"><rect x="426" y="1604" width="3286" height="1833"/></clipPath><clipPath id="clip42"><rect x="426" y="1604" width="3286" height="1833"/></clipPath><clipPath id="clip43"><rect x="426" y="1604" width="3286" height="1833"/></clipPath><clipPath id="clip44"><rect x="426" y="1604" width="3286" height="1833"/></clipPath><clipPath id="clip45"><rect x="426" y="1604" width="3286" height="1833"/></clipPath><clipPath id="clip46"><rect x="426" y="1604" width="3286" height="1833"/></clipPath><clipPath id="clip47"><rect x="426" y="1604" width="3286" height="1833"/></clipPath><clipPath id="clip48"><rect x="426" y="1604" width="3286" height="1833"/></clipPath><clipPath id="clip49"><rect x="426" y="1604" width="3286" height="1833"/></clipPath></defs><g clip-path="url(#clip0)" transform="translate(-421 -1599)"><rect x="426" y="1604" width="3286" height="1833" fill="#FFFFFF" fill-opacity="1"/><g clip-path="url(#clip1)"><path d="M557.5 2934.6 3320.5 2934.6M557.5 2614.59 3320.5 2614.59M557.5 2294.58 3320.5 2294.58M557.5 1974.56 3320.5 1974.56M557.5 1654.5 3320.5 1654.5" stroke="#D9D9D9" stroke-width="3.4375" stroke-linecap="butt" stroke-linejoin="round" stroke-miterlimit="10" stroke-opacity="1" fill="none" fill-rule="nonzero"/></g><g clip-path="url(#clip2)"><path d="M557.5 3254.5 3320.5 3254.5" stroke="#D9D9D9" stroke-width="3.4375" stroke-linecap="butt" stroke-linejoin="round" stroke-miterlimit="10" stroke-opacity="1" fill="none" fill-rule="evenodd"/></g><g clip-path="url(#clip3)"><path d="M557.5 3254.5 557.5 3334.5M1247.54 3254.5 1247.54 3334.5M1938.56 3254.5 1938.56 3334.5M2629.59 3254.5 2629.59 3334.5M3320.5 3254.5 3320.5 3334.5" stroke="#D9D9D9" stroke-width="3.4375" stroke-linecap="butt" stroke-linejoin="round" stroke-miterlimit="10" stroke-opacity="1" fill="none" fill-rule="nonzero"/></g><g clip-path="url(#clip4)"><path d="M557.5 3334.5 557.5 3414.5M1247.54 3334.5 1247.54 3414.5M1938.56 3334.5 1938.56 3414.5M2629.59 3334.5 2629.59 3414.5M3320.5 3334.5 3320.5 3414.5" stroke="#D9D9D9" stroke-width="3.4375" stroke-linecap="butt" stroke-linejoin="round" stroke-miterlimit="10" stroke-opacity="1" fill="none" fill-rule="nonzero"/></g><g clip-path="url(#clip5)"><path d="M672 3037.1 902.03 3082.1 1133.04 3075.1 1363.04 3082.1 1593.05 3088.1 1824.06 3082.1 2054.07 2979 2284.07 3043.1 2515.08 3101.1 2745.09 3127 2975.1 3018.1 3206 3107.1" stroke="#4472C4" stroke-width="10.3125" stroke-linecap="round" stroke-linejoin="round" stroke-miterlimit="10" stroke-opacity="1" fill="none" fill-rule="nonzero"/></g><g clip-path="url(#clip6)"><path d="M683.749 3037.67C683.749 3043.74 678.825 3048.67 672.75 3048.67 666.675 3048.67 661.75 3043.74 661.75 3037.67 661.75 3031.59 666.675 3026.67 672.75 3026.67 678.825 3026.67 683.749 3031.59 683.749 3037.67Z" stroke="#4472C4" stroke-width="3.4375" stroke-linecap="butt" stroke-linejoin="round" stroke-miterlimit="10" stroke-opacity="1" fill="#4472C4" fill-rule="nonzero" fill-opacity="1"/><path d="M913.75 3081.67C913.75 3087.74 908.825 3092.67 902.75 3092.67 896.675 3092.67 891.75 3087.74 891.75 3081.67 891.75 3075.59 896.675 3070.67 902.75 3070.67 908.825 3070.67 913.75 3075.59 913.75 3081.67Z" stroke="#4472C4" stroke-width="3.4375" stroke-linecap="butt" stroke-linejoin="round" stroke-miterlimit="10" stroke-opacity="1" fill="#4472C4" fill-rule="nonzero" fill-opacity="1"/><path d="M1143.75 3075.67C1143.75 3081.74 1138.82 3086.67 1132.75 3086.67 1126.68 3086.67 1121.75 3081.74 1121.75 3075.67 1121.75 3069.59 1126.68 3064.67 1132.75 3064.67 1138.82 3064.67 1143.75 3069.59 1143.75 3075.67Z" stroke="#4472C4" stroke-width="3.4375" stroke-linecap="butt" stroke-linejoin="round" stroke-miterlimit="10" stroke-opacity="1" fill="#4472C4" fill-rule="nonzero" fill-opacity="1"/><path d="M1374.75 3081.67C1374.75 3087.74 1369.82 3092.67 1363.75 3092.67 1357.68 3092.67 1352.75 3087.74 1352.75 3081.67 1352.75 3075.59 1357.68 3070.67 1363.75 3070.67 1369.82 3070.67 1374.75 3075.59 1374.75 3081.67Z" stroke="#4472C4" stroke-width="3.4375" stroke-linecap="butt" stroke-linejoin="round" stroke-miterlimit="10" stroke-opacity="1" fill="#4472C4" fill-rule="nonzero" fill-opacity="1"/><path d="M1604.75 3088.67C1604.75 3094.74 1599.82 3099.67 1593.75 3099.67 1587.67 3099.67 1582.75 3094.74 1582.75 3088.67 1582.75 3082.59 1587.67 3077.67 1593.75 3077.67 1599.82 3077.67 1604.75 3082.59 1604.75 3088.67Z" stroke="#4472C4" stroke-width="3.4375" stroke-linecap="butt" stroke-linejoin="round" stroke-miterlimit="10" stroke-opacity="1" fill="#4472C4" fill-rule="nonzero" fill-opacity="1"/><path d="M1834.75 3081.67C1834.75 3087.74 1829.82 3092.67 1823.75 3092.67 1817.67 3092.67 1812.75 3087.74 1812.75 3081.67 1812.75 3075.59 1817.67 3070.67 1823.75 3070.67 1829.82 3070.67 1834.75 3075.59 1834.75 3081.67Z" stroke="#4472C4" stroke-width="3.4375" stroke-linecap="butt" stroke-linejoin="round" stroke-miterlimit="10" stroke-opacity="1" fill="#4472C4" fill-rule="nonzero" fill-opacity="1"/><path d="M2065.75 2979.67C2065.75 2985.74 2060.82 2990.67 2054.75 2990.67 2048.67 2990.67 2043.75 2985.74 2043.75 2979.67 2043.75 2973.59 2048.67 2968.67 2054.75 2968.67 2060.82 2968.67 2065.75 2973.59 2065.75 2979.67Z" stroke="#4472C4" stroke-width="3.4375" stroke-linecap="butt" stroke-linejoin="round" stroke-miterlimit="10" stroke-opacity="1" fill="#4472C4" fill-rule="nonzero" fill-opacity="1"/><path d="M2295.75 3043.67C2295.75 3049.74 2290.82 3054.67 2284.75 3054.67 2278.67 3054.67 2273.75 3049.74 2273.75 3043.67 2273.75 3037.59 2278.67 3032.67 2284.75 3032.67 2290.82 3032.67 2295.75 3037.59 2295.75 3043.67Z" stroke="#4472C4" stroke-width="3.4375" stroke-linecap="butt" stroke-linejoin="round" stroke-miterlimit="10" stroke-opacity="1" fill="#4472C4" fill-rule="nonzero" fill-opacity="1"/><path d="M2525.75 3101.67C2525.75 3107.74 2520.82 3112.67 2514.75 3112.67 2508.67 3112.67 2503.75 3107.74 2503.75 3101.67 2503.75 3095.59 2508.67 3090.67 2514.75 3090.67 2520.82 3090.67 2525.75 3095.59 2525.75 3101.67Z" stroke="#4472C4" stroke-width="3.4375" stroke-linecap="butt" stroke-linejoin="round" stroke-miterlimit="10" stroke-opacity="1" fill="#4472C4" fill-rule="nonzero" fill-opacity="1"/><path d="M2756.75 3126.67C2756.75 3132.74 2751.82 3137.67 2745.75 3137.67 2739.67 3137.67 2734.75 3132.74 2734.75 3126.67 2734.75 3120.59 2739.67 3115.67 2745.75 3115.67 2751.82 3115.67 2756.75 3120.59 2756.75 3126.67Z" stroke="#4472C4" stroke-width="3.4375" stroke-linecap="butt" stroke-linejoin="round" stroke-miterlimit="10" stroke-opacity="1" fill="#4472C4" fill-rule="nonzero" fill-opacity="1"/><path d="M2986.75 3017.67C2986.75 3023.74 2981.82 3028.67 2975.75 3028.67 2969.67 3028.67 2964.75 3023.74 2964.75 3017.67 2964.75 3011.59 2969.67 3006.67 2975.75 3006.67 2981.82 3006.67 2986.75 3011.59 2986.75 3017.67Z" stroke="#4472C4" stroke-width="3.4375" stroke-linecap="butt" stroke-linejoin="round" stroke-miterlimit="10" stroke-opacity="1" fill="#4472C4" fill-rule="nonzero" fill-opacity="1"/><path d="M3216.75 3107.67C3216.75 3113.74 3211.82 3118.67 3205.75 3118.67 3199.67 3118.67 3194.75 3113.74 3194.75 3107.67 3194.75 3101.59 3199.67 3096.67 3205.75 3096.67 3211.82 3096.67 3216.75 3101.59 3216.75 3107.67Z" stroke="#4472C4" stroke-width="3.4375" stroke-linecap="butt" stroke-linejoin="round" stroke-miterlimit="10" stroke-opacity="1" fill="#4472C4" fill-rule="nonzero" fill-opacity="1"/></g><g clip-path="url(#clip7)"><path d="M672 2301.08 902.03 2576.08 1133.04 2563.08 1363.04 2602 1593.05 2448.08 1824.06 2314.08 2054.07 2295 2284.07 2397.08 2515.08 2442.08 2745.09 2301.08 2975.1 2525.08 3206 2499.08" stroke="#ED7D31" stroke-width="10.3125" stroke-linecap="round" stroke-linejoin="round" stroke-miterlimit="10" stroke-opacity="1" fill="none" fill-rule="nonzero"/></g><g clip-path="url(#clip8)"><path d="M683.749 2301.67C683.749 2307.74 678.825 2312.67 672.75 2312.67 666.675 2312.67 661.75 2307.74 661.75 2301.67 661.75 2295.59 666.675 2290.67 672.75 2290.67 678.825 2290.67 683.749 2295.59 683.749 2301.67Z" stroke="#ED7D31" stroke-width="3.4375" stroke-linecap="butt" stroke-linejoin="round" stroke-miterlimit="10" stroke-opacity="1" fill="#ED7D31" fill-rule="nonzero" fill-opacity="1"/><path d="M913.75 2576.67C913.75 2582.74 908.825 2587.67 902.75 2587.67 896.675 2587.67 891.75 2582.74 891.75 2576.67 891.75 2570.59 896.675 2565.67 902.75 2565.67 908.825 2565.67 913.75 2570.59 913.75 2576.67Z" stroke="#ED7D31" stroke-width="3.4375" stroke-linecap="butt" stroke-linejoin="round" stroke-miterlimit="10" stroke-opacity="1" fill="#ED7D31" fill-rule="nonzero" fill-opacity="1"/><path d="M1143.75 2563.67C1143.75 2569.74 1138.82 2574.67 1132.75 2574.67 1126.68 2574.67 1121.75 2569.74 1121.75 2563.67 1121.75 2557.59 1126.68 2552.67 1132.75 2552.67 1138.82 2552.67 1143.75 2557.59 1143.75 2563.67Z" stroke="#ED7D31" stroke-width="3.4375" stroke-linecap="butt" stroke-linejoin="round" stroke-miterlimit="10" stroke-opacity="1" fill="#ED7D31" fill-rule="nonzero" fill-opacity="1"/><path d="M1374.75 2601.67C1374.75 2607.74 1369.82 2612.67 1363.75 2612.67 1357.68 2612.67 1352.75 2607.74 1352.75 2601.67 1352.75 2595.59 1357.68 2590.67 1363.75 2590.67 1369.82 2590.67 1374.75 2595.59 1374.75 2601.67Z" stroke="#ED7D31" stroke-width="3.4375" stroke-linecap="butt" stroke-linejoin="round" stroke-miterlimit="10" stroke-opacity="1" fill="#ED7D31" fill-rule="nonzero" fill-opacity="1"/><path d="M1604.75 2448.67C1604.75 2454.74 1599.82 2459.67 1593.75 2459.67 1587.67 2459.67 1582.75 2454.74 1582.75 2448.67 1582.75 2442.59 1587.67 2437.67 1593.75 2437.67 1599.82 2437.67 1604.75 2442.59 1604.75 2448.67Z" stroke="#ED7D31" stroke-width="3.4375" stroke-linecap="butt" stroke-linejoin="round" stroke-miterlimit="10" stroke-opacity="1" fill="#ED7D31" fill-rule="nonzero" fill-opacity="1"/><path d="M1834.75 2313.67C1834.75 2319.74 1829.82 2324.67 1823.75 2324.67 1817.67 2324.67 1812.75 2319.74 1812.75 2313.67 1812.75 2307.59 1817.67 2302.67 1823.75 2302.67 1829.82 2302.67 1834.75 2307.59 1834.75 2313.67Z" stroke="#ED7D31" stroke-width="3.4375" stroke-linecap="butt" stroke-linejoin="round" stroke-miterlimit="10" stroke-opacity="1" fill="#ED7D31" fill-rule="nonzero" fill-opacity="1"/><path d="M2065.75 2294.67C2065.75 2300.74 2060.82 2305.67 2054.75 2305.67 2048.67 2305.67 2043.75 2300.74 2043.75 2294.67 2043.75 2288.59 2048.67 2283.67 2054.75 2283.67 2060.82 2283.67 2065.75 2288.59 2065.75 2294.67Z" stroke="#ED7D31" stroke-width="3.4375" stroke-linecap="butt" stroke-linejoin="round" stroke-miterlimit="10" stroke-opacity="1" fill="#ED7D31" fill-rule="nonzero" fill-opacity="1"/><path d="M2295.75 2397.67C2295.75 2403.74 2290.82 2408.67 2284.75 2408.67 2278.67 2408.67 2273.75 2403.74 2273.75 2397.67 2273.75 2391.59 2278.67 2386.67 2284.75 2386.67 2290.82 2386.67 2295.75 2391.59 2295.75 2397.67Z" stroke="#ED7D31" stroke-width="3.4375" stroke-linecap="butt" stroke-linejoin="round" stroke-miterlimit="10" stroke-opacity="1" fill="#ED7D31" fill-rule="nonzero" fill-opacity="1"/><path d="M2525.75 2441.67C2525.75 2447.74 2520.82 2452.67 2514.75 2452.67 2508.67 2452.67 2503.75 2447.74 2503.75 2441.67 2503.75 2435.59 2508.67 2430.67 2514.75 2430.67 2520.82 2430.67 2525.75 2435.59 2525.75 2441.67Z" stroke="#ED7D31" stroke-width="3.4375" stroke-linecap="butt" stroke-linejoin="round" stroke-miterlimit="10" stroke-opacity="1" fill="#ED7D31" fill-rule="nonzero" fill-opacity="1"/><path d="M2756.75 2301.67C2756.75 2307.74 2751.82 2312.67 2745.75 2312.67 2739.67 2312.67 2734.75 2307.74 2734.75 2301.67 2734.75 2295.59 2739.67 2290.67 2745.75 2290.67 2751.82 2290.67 2756.75 2295.59 2756.75 2301.67Z" stroke="#ED7D31" stroke-width="3.4375" stroke-linecap="butt" stroke-linejoin="round" stroke-miterlimit="10" stroke-opacity="1" fill="#ED7D31" fill-rule="nonzero" fill-opacity="1"/><path d="M2986.75 2525.67C2986.75 2531.74 2981.82 2536.67 2975.75 2536.67 2969.67 2536.67 2964.75 2531.74 2964.75 2525.67 2964.75 2519.59 2969.67 2514.67 2975.75 2514.67 2981.82 2514.67 2986.75 2519.59 2986.75 2525.67Z" stroke="#ED7D31" stroke-width="3.4375" stroke-linecap="butt" stroke-linejoin="round" stroke-miterlimit="10" stroke-opacity="1" fill="#ED7D31" fill-rule="nonzero" fill-opacity="1"/><path d="M3216.75 2499.67C3216.75 2505.74 3211.82 2510.67 3205.75 2510.67 3199.67 2510.67 3194.75 2505.74 3194.75 2499.67 3194.75 2493.59 3199.67 2488.67 3205.75 2488.67 3211.82 2488.67 3216.75 2493.59 3216.75 2499.67Z" stroke="#ED7D31" stroke-width="3.4375" stroke-linecap="butt" stroke-linejoin="round" stroke-miterlimit="10" stroke-opacity="1" fill="#ED7D31" fill-rule="nonzero" fill-opacity="1"/></g><g clip-path="url(#clip9)"><path d="M672 3242 902.03 3139.1 1133 3063" stroke="#A5A5A5" stroke-width="10.3125" stroke-linecap="round" stroke-linejoin="round" stroke-miterlimit="10" stroke-opacity="1" fill="none" fill-rule="nonzero"/></g><g clip-path="url(#clip10)"><path d="M683.749 3241.67C683.749 3247.74 678.825 3252.67 672.75 3252.67 666.675 3252.67 661.75 3247.74 661.75 3241.67 661.75 3235.59 666.675 3230.67 672.75 3230.67 678.825 3230.67 683.749 3235.59 683.749 3241.67Z" stroke="#A5A5A5" stroke-width="3.4375" stroke-linecap="butt" stroke-linejoin="round" stroke-miterlimit="10" stroke-opacity="1" fill="#A5A5A5" fill-rule="nonzero" fill-opacity="1"/><path d="M913.75 3139.67C913.75 3145.74 908.825 3150.67 902.75 3150.67 896.675 3150.67 891.75 3145.74 891.75 3139.67 891.75 3133.59 896.675 3128.67 902.75 3128.67 908.825 3128.67 913.75 3133.59 913.75 3139.67Z" stroke="#A5A5A5" stroke-width="3.4375" stroke-linecap="butt" stroke-linejoin="round" stroke-miterlimit="10" stroke-opacity="1" fill="#A5A5A5" fill-rule="nonzero" fill-opacity="1"/><path d="M1143.75 3062.67C1143.75 3068.74 1138.82 3073.67 1132.75 3073.67 1126.68 3073.67 1121.75 3068.74 1121.75 3062.67 1121.75 3056.59 1126.68 3051.67 1132.75 3051.67 1138.82 3051.67 1143.75 3056.59 1143.75 3062.67Z" stroke="#A5A5A5" stroke-width="3.4375" stroke-linecap="butt" stroke-linejoin="round" stroke-miterlimit="10" stroke-opacity="1" fill="#A5A5A5" fill-rule="nonzero" fill-opacity="1"/></g><g clip-path="url(#clip11)"><path d="M672 2090.07 902.03 1962.06 1133.04 2103.07 1363.04 2026.07 1593.05 1757 1824.06 1904.06 2054.07 2013.07 2284.07 2192.07 2515.08 2314.08 2745.09 2083.07 2975.1 2083.07 3206 2544" stroke="#FFC000" stroke-width="10.3125" stroke-linecap="round" stroke-linejoin="round" stroke-miterlimit="10" stroke-opacity="1" fill="none" fill-rule="nonzero"/></g><g clip-path="url(#clip12)"><path d="M683.749 2089.67C683.749 2095.74 678.825 2100.67 672.75 2100.67 666.675 2100.67 661.75 2095.74 661.75 2089.67 661.75 2083.59 666.675 2078.67 672.75 2078.67 678.825 2078.67 683.749 2083.59 683.749 2089.67Z" stroke="#FFC000" stroke-width="3.4375" stroke-linecap="butt" stroke-linejoin="round" stroke-miterlimit="10" stroke-opacity="1" fill="#FFC000" fill-rule="nonzero" fill-opacity="1"/><path d="M913.75 1961.67C913.75 1967.74 908.825 1972.67 902.75 1972.67 896.675 1972.67 891.75 1967.74 891.75 1961.67 891.75 1955.59 896.675 1950.67 902.75 1950.67 908.825 1950.67 913.75 1955.59 913.75 1961.67Z" stroke="#FFC000" stroke-width="3.4375" stroke-linecap="butt" stroke-linejoin="round" stroke-miterlimit="10" stroke-opacity="1" fill="#FFC000" fill-rule="nonzero" fill-opacity="1"/><path d="M1143.75 2102.67C1143.75 2108.74 1138.82 2113.67 1132.75 2113.67 1126.68 2113.67 1121.75 2108.74 1121.75 2102.67 1121.75 2096.59 1126.68 2091.67 1132.75 2091.67 1138.82 2091.67 1143.75 2096.59 1143.75 2102.67Z" stroke="#FFC000" stroke-width="3.4375" stroke-linecap="butt" stroke-linejoin="round" stroke-miterlimit="10" stroke-opacity="1" fill="#FFC000" fill-rule="nonzero" fill-opacity="1"/><path d="M1374.75 2025.67C1374.75 2031.74 1369.82 2036.67 1363.75 2036.67 1357.68 2036.67 1352.75 2031.74 1352.75 2025.67 1352.75 2019.59 1357.68 2014.67 1363.75 2014.67 1369.82 2014.67 1374.75 2019.59 1374.75 2025.67Z" stroke="#FFC000" stroke-width="3.4375" stroke-linecap="butt" stroke-linejoin="round" stroke-miterlimit="10" stroke-opacity="1" fill="#FFC000" fill-rule="nonzero" fill-opacity="1"/><path d="M1604.75 1756.67C1604.75 1762.74 1599.82 1767.67 1593.75 1767.67 1587.67 1767.67 1582.75 1762.74 1582.75 1756.67 1582.75 1750.59 1587.67 1745.67 1593.75 1745.67 1599.82 1745.67 1604.75 1750.59 1604.75 1756.67Z" stroke="#FFC000" stroke-width="3.4375" stroke-linecap="butt" stroke-linejoin="round" stroke-miterlimit="10" stroke-opacity="1" fill="#FFC000" fill-rule="nonzero" fill-opacity="1"/><path d="M1834.75 1904.67C1834.75 1910.74 1829.82 1915.67 1823.75 1915.67 1817.67 1915.67 1812.75 1910.74 1812.75 1904.67 1812.75 1898.59 1817.67 1893.67 1823.75 1893.67 1829.82 1893.67 1834.75 1898.59 1834.75 1904.67Z" stroke="#FFC000" stroke-width="3.4375" stroke-linecap="butt" stroke-linejoin="round" stroke-miterlimit="10" stroke-opacity="1" fill="#FFC000" fill-rule="nonzero" fill-opacity="1"/><path d="M2065.75 2012.67C2065.75 2018.74 2060.82 2023.67 2054.75 2023.67 2048.67 2023.67 2043.75 2018.74 2043.75 2012.67 2043.75 2006.59 2048.67 2001.67 2054.75 2001.67 2060.82 2001.67 2065.75 2006.59 2065.75 2012.67Z" stroke="#FFC000" stroke-width="3.4375" stroke-linecap="butt" stroke-linejoin="round" stroke-miterlimit="10" stroke-opacity="1" fill="#FFC000" fill-rule="nonzero" fill-opacity="1"/><path d="M2295.75 2192.67C2295.75 2198.74 2290.82 2203.67 2284.75 2203.67 2278.67 2203.67 2273.75 2198.74 2273.75 2192.67 2273.75 2186.59 2278.67 2181.67 2284.75 2181.67 2290.82 2181.67 2295.75 2186.59 2295.75 2192.67Z" stroke="#FFC000" stroke-width="3.4375" stroke-linecap="butt" stroke-linejoin="round" stroke-miterlimit="10" stroke-opacity="1" fill="#FFC000" fill-rule="nonzero" fill-opacity="1"/><path d="M2525.75 2313.67C2525.75 2319.74 2520.82 2324.67 2514.75 2324.67 2508.67 2324.67 2503.75 2319.74 2503.75 2313.67 2503.75 2307.59 2508.67 2302.67 2514.75 2302.67 2520.82 2302.67 2525.75 2307.59 2525.75 2313.67Z" stroke="#FFC000" stroke-width="3.4375" stroke-linecap="butt" stroke-linejoin="round" stroke-miterlimit="10" stroke-opacity="1" fill="#FFC000" fill-rule="nonzero" fill-opacity="1"/><path d="M2756.75 2083.67C2756.75 2089.74 2751.82 2094.67 2745.75 2094.67 2739.67 2094.67 2734.75 2089.74 2734.75 2083.67 2734.75 2077.59 2739.67 2072.67 2745.75 2072.67 2751.82 2072.67 2756.75 2077.59 2756.75 2083.67Z" stroke="#FFC000" stroke-width="3.4375" stroke-linecap="butt" stroke-linejoin="round" stroke-miterlimit="10" stroke-opacity="1" fill="#FFC000" fill-rule="nonzero" fill-opacity="1"/><path d="M2986.75 2083.67C2986.75 2089.74 2981.82 2094.67 2975.75 2094.67 2969.67 2094.67 2964.75 2089.74 2964.75 2083.67 2964.75 2077.59 2969.67 2072.67 2975.75 2072.67 2981.82 2072.67 2986.75 2077.59 2986.75 2083.67Z" stroke="#FFC000" stroke-width="3.4375" stroke-linecap="butt" stroke-linejoin="round" stroke-miterlimit="10" stroke-opacity="1" fill="#FFC000" fill-rule="nonzero" fill-opacity="1"/><path d="M3216.75 2544.67C3216.75 2550.74 3211.82 2555.67 3205.75 2555.67 3199.67 2555.67 3194.75 2550.74 3194.75 2544.67 3194.75 2538.59 3199.67 2533.67 3205.75 2533.67 3211.82 2533.67 3216.75 2538.59 3216.75 2544.67Z" stroke="#FFC000" stroke-width="3.4375" stroke-linecap="butt" stroke-linejoin="round" stroke-miterlimit="10" stroke-opacity="1" fill="#FFC000" fill-rule="nonzero" fill-opacity="1"/></g><g clip-path="url(#clip13)"><text fill="#595959" fill-opacity="1" font-family="Calibri,Calibri_MSFontService,sans-serif" font-style="normal" font-variant="normal" font-weight="400" font-stretch="normal" font-size="41" text-anchor="start" direction="ltr" writing-mode="lr-tb" unicode-bidi="normal" text-decoration="none" transform="matrix(1 0 0 1 497.842 3265)">0</text></g><g clip-path="url(#clip14)"><text fill="#595959" fill-opacity="1" font-family="Calibri,Calibri_MSFontService,sans-serif" font-style="normal" font-variant="normal" font-weight="400" font-stretch="normal" font-size="41" text-anchor="start" direction="ltr" writing-mode="lr-tb" unicode-bidi="normal" text-decoration="none" transform="matrix(1 0 0 1 476.942 2945)">50</text></g><g clip-path="url(#clip15)"><text fill="#595959" fill-opacity="1" font-family="Calibri,Calibri_MSFontService,sans-serif" font-style="normal" font-variant="normal" font-weight="400" font-stretch="normal" font-size="41" text-anchor="start" direction="ltr" writing-mode="lr-tb" unicode-bidi="normal" text-decoration="none" transform="matrix(1 0 0 1 456.042 2625)">100</text></g><g clip-path="url(#clip16)"><text fill="#595959" fill-opacity="1" font-family="Calibri,Calibri_MSFontService,sans-serif" font-style="normal" font-variant="normal" font-weight="400" font-stretch="normal" font-size="41" text-anchor="start" direction="ltr" writing-mode="lr-tb" unicode-bidi="normal" text-decoration="none" transform="matrix(1 0 0 1 456.042 2305)">150</text></g><g clip-path="url(#clip17)"><text fill="#595959" fill-opacity="1" font-family="Calibri,Calibri_MSFontService,sans-serif" font-style="normal" font-variant="normal" font-weight="400" font-stretch="normal" font-size="41" text-anchor="start" direction="ltr" writing-mode="lr-tb" unicode-bidi="normal" text-decoration="none" transform="matrix(1 0 0 1 456.042 1985)">200</text></g><g clip-path="url(#clip18)"><text fill="#595959" fill-opacity="1" font-family="Calibri,Calibri_MSFontService,sans-serif" font-style="normal" font-variant="normal" font-weight="400" font-stretch="normal" font-size="41" text-anchor="start" direction="ltr" writing-mode="lr-tb" unicode-bidi="normal" text-decoration="none" transform="matrix(1 0 0 1 456.042 1665)">250</text></g><g clip-path="url(#clip19)"><text fill="#595959" fill-opacity="1" font-family="Calibri,Calibri_MSFontService,sans-serif" font-style="normal" font-variant="normal" font-weight="400" font-stretch="normal" font-size="41" text-anchor="start" direction="ltr" writing-mode="lr-tb" unicode-bidi="normal" text-decoration="none" transform="matrix(1 0 0 1 644.881 3320)">Jan</text></g><g clip-path="url(#clip20)"><text fill="#595959" fill-opacity="1" font-family="Calibri,Calibri_MSFontService,sans-serif" font-style="normal" font-variant="normal" font-weight="400" font-stretch="normal" font-size="41" text-anchor="start" direction="ltr" writing-mode="lr-tb" unicode-bidi="normal" text-decoration="none" transform="matrix(1 0 0 1 871.924 3320)">Feb</text></g><g clip-path="url(#clip21)"><text fill="#595959" fill-opacity="1" font-family="Calibri,Calibri_MSFontService,sans-serif" font-style="normal" font-variant="normal" font-weight="400" font-stretch="normal" font-size="41" text-anchor="start" direction="ltr" writing-mode="lr-tb" unicode-bidi="normal" text-decoration="none" transform="matrix(1 0 0 1 1098.13 3320)">Mar</text></g><g clip-path="url(#clip22)"><text fill="#595959" fill-opacity="1" font-family="Calibri,Calibri_MSFontService,sans-serif" font-style="normal" font-variant="normal" font-weight="400" font-stretch="normal" font-size="41" text-anchor="start" direction="ltr" writing-mode="lr-tb" unicode-bidi="normal" text-decoration="none" transform="matrix(1 0 0 1 1333.19 3320)">Apr</text></g><g clip-path="url(#clip23)"><text fill="#595959" fill-opacity="1" font-family="Calibri,Calibri_MSFontService,sans-serif" font-style="normal" font-variant="normal" font-weight="400" font-stretch="normal" font-size="41" text-anchor="start" direction="ltr" writing-mode="lr-tb" unicode-bidi="normal" text-decoration="none" transform="matrix(1 0 0 1 1556.65 3320)">May</text></g><g clip-path="url(#clip24)"><text fill="#595959" fill-opacity="1" font-family="Calibri,Calibri_MSFontService,sans-serif" font-style="normal" font-variant="normal" font-weight="400" font-stretch="normal" font-size="41" text-anchor="start" direction="ltr" writing-mode="lr-tb" unicode-bidi="normal" text-decoration="none" transform="matrix(1 0 0 1 1795.58 3320)">Jun</text></g><g clip-path="url(#clip25)"><text fill="#595959" fill-opacity="1" font-family="Calibri,Calibri_MSFontService,sans-serif" font-style="normal" font-variant="normal" font-weight="400" font-stretch="normal" font-size="41" text-anchor="start" direction="ltr" writing-mode="lr-tb" unicode-bidi="normal" text-decoration="none" transform="matrix(1 0 0 1 2032.02 3320)">Jul</text></g><g clip-path="url(#clip26)"><text fill="#595959" fill-opacity="1" font-family="Calibri,Calibri_MSFontService,sans-serif" font-style="normal" font-variant="normal" font-weight="400" font-stretch="normal" font-size="41" text-anchor="start" direction="ltr" writing-mode="lr-tb" unicode-bidi="normal" text-decoration="none" transform="matrix(1 0 0 1 2252.01 3320)">Aug</text></g><g clip-path="url(#clip27)"><text fill="#595959" fill-opacity="1" font-family="Calibri,Calibri_MSFontService,sans-serif" font-style="normal" font-variant="normal" font-weight="400" font-stretch="normal" font-size="41" text-anchor="start" direction="ltr" writing-mode="lr-tb" unicode-bidi="normal" text-decoration="none" transform="matrix(1 0 0 1 2484.25 3320)">Sep</text></g><g clip-path="url(#clip28)"><text fill="#595959" fill-opacity="1" font-family="Calibri,Calibri_MSFontService,sans-serif" font-style="normal" font-variant="normal" font-weight="400" font-stretch="normal" font-size="41" text-anchor="start" direction="ltr" writing-mode="lr-tb" unicode-bidi="normal" text-decoration="none" transform="matrix(1 0 0 1 2715.87 3320)">Oct</text></g><g clip-path="url(#clip29)"><text fill="#595959" fill-opacity="1" font-family="Calibri,Calibri_MSFontService,sans-serif" font-style="normal" font-variant="normal" font-weight="400" font-stretch="normal" font-size="41" text-anchor="start" direction="ltr" writing-mode="lr-tb" unicode-bidi="normal" text-decoration="none" transform="matrix(1 0 0 1 2941.99 3320)">Nov</text></g><g clip-path="url(#clip30)"><text fill="#595959" fill-opacity="1" font-family="Calibri,Calibri_MSFontService,sans-serif" font-style="normal" font-variant="normal" font-weight="400" font-stretch="normal" font-size="41" text-anchor="start" direction="ltr" writing-mode="lr-tb" unicode-bidi="normal" text-decoration="none" transform="matrix(1 0 0 1 3174.15 3320)">Dec</text></g><g clip-path="url(#clip31)"><text fill="#595959" fill-opacity="1" font-family="Calibri,Calibri_MSFontService,sans-serif" font-style="normal" font-variant="normal" font-weight="400" font-stretch="normal" font-size="41" text-anchor="start" direction="ltr" writing-mode="lr-tb" unicode-bidi="normal" text-decoration="none" transform="matrix(1 0 0 1 864.075 3400)">Qtr1</text></g><g clip-path="url(#clip32)"><text fill="#595959" fill-opacity="1" font-family="Calibri,Calibri_MSFontService,sans-serif" font-style="normal" font-variant="normal" font-weight="400" font-stretch="normal" font-size="41" text-anchor="start" direction="ltr" writing-mode="lr-tb" unicode-bidi="normal" text-decoration="none" transform="matrix(1 0 0 1 1555.07 3400)">Qtr2</text></g><g clip-path="url(#clip33)"><text fill="#595959" fill-opacity="1" font-family="Calibri,Calibri_MSFontService,sans-serif" font-style="normal" font-variant="normal" font-weight="400" font-stretch="normal" font-size="41" text-anchor="start" direction="ltr" writing-mode="lr-tb" unicode-bidi="normal" text-decoration="none" transform="matrix(1 0 0 1 2246.07 3400)">Qtr3</text></g><g clip-path="url(#clip34)"><text fill="#595959" fill-opacity="1" font-family="Calibri,Calibri_MSFontService,sans-serif" font-style="normal" font-variant="normal" font-weight="400" font-stretch="normal" font-size="41" text-anchor="start" direction="ltr" writing-mode="lr-tb" unicode-bidi="normal" text-decoration="none" transform="matrix(1 0 0 1 2937.06 3400)">Qtr4</text></g><g clip-path="url(#clip35)"><path d="M3393 2368 3481 2368" stroke="#4472C4" stroke-width="10.3125" stroke-linecap="round" stroke-linejoin="round" stroke-miterlimit="10" stroke-opacity="1" fill="none" fill-rule="evenodd"/></g><g clip-path="url(#clip36)"><path d="M3447 2367C3447 2373.07 3442.07 2378 3436 2378 3429.93 2378 3425 2373.07 3425 2367 3425 2360.92 3429.93 2356 3436 2356 3442.07 2356 3447 2360.92 3447 2367Z" stroke="#4472C4" stroke-width="3.4375" stroke-linecap="butt" stroke-linejoin="round" stroke-miterlimit="10" stroke-opacity="1" fill="#4472C4" fill-rule="nonzero" fill-opacity="1"/></g><g clip-path="url(#clip37)"><text fill="#595959" fill-opacity="1" font-family="Calibri,Calibri_MSFontService,sans-serif" font-style="normal" font-variant="normal" font-weight="400" font-stretch="normal" font-size="41" text-anchor="start" direction="ltr" writing-mode="lr-tb" unicode-bidi="normal" text-decoration="none" transform="matrix(1 0 0 1 3490 2378)">canceled</text></g><g clip-path="url(#clip38)"><path d="M3393 2445 3481 2445" stroke="#ED7D31" stroke-width="10.3125" stroke-linecap="round" stroke-linejoin="round" stroke-miterlimit="10" stroke-opacity="1" fill="none" fill-rule="evenodd"/></g><g clip-path="url(#clip39)"><path d="M3447 2445C3447 2451.07 3442.07 2456 3436 2456 3429.93 2456 3425 2451.07 3425 2445 3425 2438.92 3429.93 2434 3436 2434 3442.07 2434 3447 2438.92 3447 2445Z" stroke="#ED7D31" stroke-width="3.4375" stroke-linecap="butt" stroke-linejoin="round" stroke-miterlimit="10" stroke-opacity="1" fill="#ED7D31" fill-rule="nonzero" fill-opacity="1"/></g><g clip-path="url(#clip40)"><text fill="#595959" fill-opacity="1" font-family="Calibri,Calibri_MSFontService,sans-serif" font-style="normal" font-variant="normal" font-weight="400" font-stretch="normal" font-size="41" text-anchor="start" direction="ltr" writing-mode="lr-tb" unicode-bidi="normal" text-decoration="none" transform="matrix(1 0 0 1 3490 2455)">failed</text></g><g clip-path="url(#clip41)"><path d="M3393 2523 3481 2523" stroke="#A5A5A5" stroke-width="10.3125" stroke-linecap="round" stroke-linejoin="round" stroke-miterlimit="10" stroke-opacity="1" fill="none" fill-rule="evenodd"/></g><g clip-path="url(#clip42)"><path d="M3447 2522C3447 2528.07 3442.07 2533 3436 2533 3429.93 2533 3425 2528.07 3425 2522 3425 2515.92 3429.93 2511 3436 2511 3442.07 2511 3447 2515.92 3447 2522Z" stroke="#A5A5A5" stroke-width="3.4375" stroke-linecap="butt" stroke-linejoin="round" stroke-miterlimit="10" stroke-opacity="1" fill="#A5A5A5" fill-rule="nonzero" fill-opacity="1"/></g><g clip-path="url(#clip43)"><text fill="#595959" fill-opacity="1" font-family="Calibri,Calibri_MSFontService,sans-serif" font-style="normal" font-variant="normal" font-weight="400" font-stretch="normal" font-size="41" text-anchor="start" direction="ltr" writing-mode="lr-tb" unicode-bidi="normal" text-decoration="none" transform="matrix(1 0 0 1 3490 2533)">live</text></g><g clip-path="url(#clip44)"><path d="M3393 2600 3481 2600" stroke="#FFC000" stroke-width="10.3125" stroke-linecap="round" stroke-linejoin="round" stroke-miterlimit="10" stroke-opacity="1" fill="none" fill-rule="evenodd"/></g><g clip-path="url(#clip45)"><path d="M3447 2599C3447 2605.07 3442.07 2610 3436 2610 3429.93 2610 3425 2605.07 3425 2599 3425 2592.92 3429.93 2588 3436 2588 3442.07 2588 3447 2592.92 3447 2599Z" stroke="#FFC000" stroke-width="3.4375" stroke-linecap="butt" stroke-linejoin="round" stroke-miterlimit="10" stroke-opacity="1" fill="#FFC000" fill-rule="nonzero" fill-opacity="1"/></g><g clip-path="url(#clip46)"><text fill="#595959" fill-opacity="1" font-family="Calibri,Calibri_MSFontService,sans-serif" font-style="normal" font-variant="normal" font-weight="400" font-stretch="normal" font-size="41" text-anchor="start" direction="ltr" writing-mode="lr-tb" unicode-bidi="normal" text-decoration="none" transform="matrix(1 0 0 1 3490 2610)">successful</text></g><g clip-path="url(#clip47)"><path d="M3393 2677 3481 2677" stroke="#5B9BD5" stroke-width="10.3125" stroke-linecap="round" stroke-linejoin="round" stroke-miterlimit="10" stroke-opacity="1" fill="none" fill-rule="evenodd"/></g><g clip-path="url(#clip48)"><path d="M3447 2677C3447 2683.07 3442.07 2688 3436 2688 3429.93 2688 3425 2683.07 3425 2677 3425 2670.92 3429.93 2666 3436 2666 3442.07 2666 3447 2670.92 3447 2677Z" stroke="#5B9BD5" stroke-width="3.4375" stroke-linecap="butt" stroke-linejoin="round" stroke-miterlimit="10" stroke-opacity="1" fill="#5B9BD5" fill-rule="nonzero" fill-opacity="1"/></g><g clip-path="url(#clip49)"><text fill="#595959" fill-opacity="1" font-family="Calibri,Calibri_MSFontService,sans-serif" font-style="normal" font-variant="normal" font-weight="400" font-stretch="normal" font-size="41" text-anchor="start" direction="ltr" writing-mode="lr-tb" unicode-bidi="normal" text-decoration="none" transform="matrix(1 0 0 1 3490 2687)">(blank)</text></g><rect x="426.5" y="1604.5" width="3286" height="1833" stroke="#D9D9D9" stroke-width="3.4375" stroke-linecap="butt" stroke-linejoin="round" stroke-miterlimit="10" stroke-opacity="1" fill="none"/></g></svg>