<svg width="2430" height="1641" xmlns="http://www.w3.org/2000/svg" xmlns:xlink="http://www.w3.org/1999/xlink" overflow="hidden"><defs><clipPath id="clip0"><rect x="2717" y="151" width="2430" height="1641"/></clipPath><clipPath id="clip1"><rect x="2721" y="154" width="2422" height="1632"/></clipPath><clipPath id="clip2"><rect x="2849" y="182" width="2026" height="1463"/></clipPath><clipPath id="clip3"><rect x="2849" y="182" width="2026" height="1463"/></clipPath><clipPath id="clip4"><rect x="2849" y="182" width="2026" height="1463"/></clipPath><clipPath id="clip5"><rect x="2849" y="182" width="2026" height="1463"/></clipPath><clipPath id="clip6"><rect x="2721" y="154" width="2422" height="1632"/></clipPath><clipPath id="clip7"><rect x="2721" y="154" width="2422" height="1632"/></clipPath><clipPath id="clip8"><rect x="2721" y="154" width="2422" height="1632"/></clipPath><clipPath id="clip9"><rect x="2721" y="154" width="2422" height="1632"/></clipPath><clipPath id="clip10"><rect x="2721" y="154" width="2422" height="1632"/></clipPath><clipPath id="clip11"><rect x="2721" y="154" width="2422" height="1632"/></clipPath><clipPath id="clip12"><rect x="2721" y="154" width="2422" height="1632"/></clipPath><clipPath id="clip13"><rect x="2721" y="154" width="2422" height="1632"/></clipPath><clipPath id="clip14"><rect x="2721" y="154" width="2422" height="1632"/></clipPath><clipPath id="clip15"><rect x="2721" y="154" width="2422" height="1632"/></clipPath><clipPath id="clip16"><rect x="2721" y="154" width="2422" height="1632"/></clipPath><clipPath id="clip17"><rect x="2721" y="154" width="2422" height="1632"/></clipPath><clipPath id="clip18"><rect x="2721" y="154" width="2422" height="1632"/></clipPath><clipPath id="clip19"><rect x="2721" y="154" width="2422" height="1632"/></clipPath><clipPath id="clip20"><rect x="2721" y="154" width="2422" height="1632"/></clipPath><clipPath id="clip21"><rect x="2721" y="154" width="2422" height="1632"/></clipPath><clipPath id="clip22"><rect x="2721" y="154" width="2422" height="1632"/></clipPath><clipPath id="clip23"><rect x="2721" y="154" width="2422" height="1632"/></clipPath><clipPath id="clip24"><rect x="2721" y="154" width="2422" height="1632"/></clipPath><clipPath id="clip25"><rect x="2721" y="154" width="2422" height="1632"/></clipPath><clipPath id="clip26"><rect x="2721" y="154" width="2422" height="1632"/></clipPath><clipPath id="clip27"><rect x="2721" y="154" width="2422" height="1632"/></clipPath><clipPath id="clip28"><rect x="2721" y="154" width="2422" height="1632"/></clipPath><clipPath id="clip29"><rect x="2721" y="154" width="2422" height="1632"/></clipPath><clipPath id="clip30"><rect x="2721" y="154" width="2422" height="1632"/></clipPath><clipPath id="clip31"><rect x="2721" y="154" width="2422" height="1632"/></clipPath><clipPath id="clip32"><rect x="2721" y="154" width="2422" height="1632"/></clipPath><clipPath id="clip33"><rect x="2721" y="154" width="2422" height="1632"/></clipPath><clipPath id="clip34"><rect x="2721" y="154" width="2422" height="1632"/></clipPath><clipPath id="clip35"><rect x="2721" y="154" width="2422" height="1632"/></clipPath></defs><g clip-path="url(#clip0)" transform="translate(-2717 -151)"><rect x="2721" y="154" width="2422" height="1633" fill="#FFFFFF" fill-opacity="1"/><g clip-path="url(#clip1)"><path d="M2849.5 1496.55 4872.5 1496.55M2849.5 1350.54 4872.5 1350.54M2849.5 1204.54 4872.5 1204.54M2849.5 1058.53 4872.5 1058.53M2849.5 912.53 4872.5 912.53M2849.5 766.525 4872.5 766.525M2849.5 620.521 4872.5 620.521M2849.5 474.516 4872.5 474.516M2849.5 328.511 4872.5 328.511M2849.5 182.5 4872.5 182.5" stroke="#D9D9D9" stroke-width="3.4375" stroke-linecap="butt" stroke-linejoin="round" stroke-miterlimit="10" stroke-opacity="1" fill="none" fill-rule="nonzero"/></g><g clip-path="url(#clip2)"><path d="M2927.1 1597.05 2997.1 1597.05 2997.1 1643 2927.1 1643ZM3152.1 1621.05 3222.11 1621.05 3222.11 1643 3152.1 1643ZM3601.12 1609.05 3672.12 1609.05 3672.12 1643 3601.12 1643ZM3826.13 1615.05 3896.13 1615.05 3896.13 1643 3826.13 1643ZM4275.14 1610.05 4346.14 1610.05 4346.14 1643 4275.14 1643ZM4500.15 1466.05 4570.15 1466.05 4570.15 1643 4500.15 1643ZM4725.15 1605.05 4795.16 1605.05 4795.16 1643 4725.15 1643Z" fill="#4472C4" fill-rule="nonzero" fill-opacity="1"/></g><g clip-path="url(#clip3)"><path d="M2927.1 1407.05 2997.1 1407.05 2997.1 1597.05 2927.1 1597.05ZM3152.1 1453.05 3222.11 1453.05 3222.11 1621.05 3152.1 1621.05ZM3376.11 1502.05 3447.11 1502.05 3447.11 1643 3376.11 1643ZM3826.13 1454.05 3896.13 1454.05 3896.13 1615.05 3826.13 1615.05ZM4051.13 1537.05 4121.14 1537.05 4121.14 1643 4051.13 1643ZM4275.14 1483.05 4346.14 1483.05 4346.14 1610.05 4275.14 1610.05ZM4500.15 1264.04 4570.15 1264.04 4570.15 1466.05 4500.15 1466.05ZM4725.15 1095.04 4795.16 1095.04 4795.16 1605.05 4725.15 1605.05Z" fill="#ED7D31" fill-rule="nonzero" fill-opacity="1"/></g><g clip-path="url(#clip4)"><path d="M3152.1 1447.05 3222.11 1447.05 3222.11 1453.05 3152.1 1453.05ZM3826.13 1429.05 3896.13 1429.05 3896.13 1454.05 3826.13 1454.05ZM4725.15 1078.04 4795.16 1078.04 4795.16 1095.04 4725.15 1095.04Z" fill="#A5A5A5" fill-rule="nonzero" fill-opacity="1"/></g><g clip-path="url(#clip5)"><path d="M2927.1 1026.03 2997.1 1026.03 2997.1 1407.05 2927.1 1407.05ZM3152.1 1397.05 3222.11 1397.05 3222.11 1447.05 3152.1 1447.05ZM3376.11 1426.05 3447.11 1426.05 3447.11 1502.05 3376.11 1502.05ZM3826.13 714.023 3896.13 714.023 3896.13 1429.05 3826.13 1429.05ZM4051.13 1447.05 4121.14 1447.05 4121.14 1537.05 4051.13 1537.05ZM4275.14 1383.05 4346.14 1383.05 4346.14 1483.05 4275.14 1483.05ZM4500.15 1034.03 4570.15 1034.03 4570.15 1264.04 4500.15 1264.04ZM4725.15 311.01 4795.16 311.01 4795.16 1078.04 4725.15 1078.04Z" fill="#FFC000" fill-rule="nonzero" fill-opacity="1"/></g><g clip-path="url(#clip6)"><path d="M2849.5 1642.5 4872.5 1642.5" stroke="#D9D9D9" stroke-width="3.4375" stroke-linecap="butt" stroke-linejoin="round" stroke-miterlimit="10" stroke-opacity="1" fill="none" fill-rule="evenodd"/></g><g clip-path="url(#clip7)"><text fill="#595959" fill-opacity="1" font-family="Calibri,Calibri_MSFontService,sans-serif" font-style="normal" font-variant="normal" font-weight="400" font-stretch="normal" font-size="41" text-anchor="start" direction="ltr" writing-mode="lr-tb" unicode-bidi="normal" text-decoration="none" transform="matrix(1 0 0 1 2790.8 1653)">0</text></g><g clip-path="url(#clip8)"><text fill="#595959" fill-opacity="1" font-family="Calibri,Calibri_MSFontService,sans-serif" font-style="normal" font-variant="normal" font-weight="400" font-stretch="normal" font-size="41" text-anchor="start" direction="ltr" writing-mode="lr-tb" unicode-bidi="normal" text-decoration="none" transform="matrix(1 0 0 1 2749 1507)">100</text></g><g clip-path="url(#clip9)"><text fill="#595959" fill-opacity="1" font-family="Calibri,Calibri_MSFontService,sans-serif" font-style="normal" font-variant="normal" font-weight="400" font-stretch="normal" font-size="41" text-anchor="start" direction="ltr" writing-mode="lr-tb" unicode-bidi="normal" text-decoration="none" transform="matrix(1 0 0 1 2749 1361)">200</text></g><g clip-path="url(#clip10)"><text fill="#595959" fill-opacity="1" font-family="Calibri,Calibri_MSFontService,sans-serif" font-style="normal" font-variant="normal" font-weight="400" font-stretch="normal" font-size="41" text-anchor="start" direction="ltr" writing-mode="lr-tb" unicode-bidi="normal" text-decoration="none" transform="matrix(1 0 0 1 2749 1215)">300</text></g><g clip-path="url(#clip11)"><text fill="#595959" fill-opacity="1" font-family="Calibri,Calibri_MSFontService,sans-serif" font-style="normal" font-variant="normal" font-weight="400" font-stretch="normal" font-size="41" text-anchor="start" direction="ltr" writing-mode="lr-tb" unicode-bidi="normal" text-decoration="none" transform="matrix(1 0 0 1 2749 1069)">400</text></g><g clip-path="url(#clip12)"><text fill="#595959" fill-opacity="1" font-family="Calibri,Calibri_MSFontService,sans-serif" font-style="normal" font-variant="normal" font-weight="400" font-stretch="normal" font-size="41" text-anchor="start" direction="ltr" writing-mode="lr-tb" unicode-bidi="normal" text-decoration="none" transform="matrix(1 0 0 1 2749 923)">500</text></g><g clip-path="url(#clip13)"><text fill="#595959" fill-opacity="1" font-family="Calibri,Calibri_MSFontService,sans-serif" font-style="normal" font-variant="normal" font-weight="400" font-stretch="normal" font-size="41" text-anchor="start" direction="ltr" writing-mode="lr-tb" unicode-bidi="normal" text-decoration="none" transform="matrix(1 0 0 1 2749 777)">600</text></g><g clip-path="url(#clip14)"><text fill="#595959" fill-opacity="1" font-family="Calibri,Calibri_MSFontService,sans-serif" font-style="normal" font-variant="normal" font-weight="400" font-stretch="normal" font-size="41" text-anchor="start" direction="ltr" writing-mode="lr-tb" unicode-bidi="normal" text-decoration="none" transform="matrix(1 0 0 1 2749 631)">700</text></g><g clip-path="url(#clip15)"><text fill="#595959" fill-opacity="1" font-family="Calibri,Calibri_MSFontService,sans-serif" font-style="normal" font-variant="normal" font-weight="400" font-stretch="normal" font-size="41" text-anchor="start" direction="ltr" writing-mode="lr-tb" unicode-bidi="normal" text-decoration="none" transform="matrix(1 0 0 1 2749 485)">800</text></g><g clip-path="url(#clip16)"><text fill="#595959" fill-opacity="1" font-family="Calibri,Calibri_MSFontService,sans-serif" font-style="normal" font-variant="normal" font-weight="400" font-stretch="normal" font-size="41" text-anchor="start" direction="ltr" writing-mode="lr-tb" unicode-bidi="normal" text-decoration="none" transform="matrix(1 0 0 1 2749 339)">900</text></g><g clip-path="url(#clip17)"><text fill="#595959" fill-opacity="1" font-family="Calibri,Calibri_MSFontService,sans-serif" font-style="normal" font-variant="normal" font-weight="400" font-stretch="normal" font-size="41" text-anchor="start" direction="ltr" writing-mode="lr-tb" unicode-bidi="normal" text-decoration="none" transform="matrix(1 0 0 1 2728.1 193)">1000</text></g><g clip-path="url(#clip18)"><text fill="#595959" fill-opacity="1" font-family="Calibri,Calibri_MSFontService,sans-serif" font-style="normal" font-variant="normal" font-weight="400" font-stretch="normal" font-size="41" text-anchor="start" direction="ltr" writing-mode="lr-tb" unicode-bidi="normal" text-decoration="none" transform="matrix(1 0 0 1 2860.67 1708)">film &amp; video</text></g><g clip-path="url(#clip19)"><text fill="#595959" fill-opacity="1" font-family="Calibri,Calibri_MSFontService,sans-serif" font-style="normal" font-variant="normal" font-weight="400" font-stretch="normal" font-size="41" text-anchor="start" direction="ltr" writing-mode="lr-tb" unicode-bidi="normal" text-decoration="none" transform="matrix(1 0 0 1 3148.17 1708)">food</text></g><g clip-path="url(#clip20)"><text fill="#595959" fill-opacity="1" font-family="Calibri,Calibri_MSFontService,sans-serif" font-style="normal" font-variant="normal" font-weight="400" font-stretch="normal" font-size="41" text-anchor="start" direction="ltr" writing-mode="lr-tb" unicode-bidi="normal" text-decoration="none" transform="matrix(1 0 0 1 3357.37 1708)">games</text></g><g clip-path="url(#clip21)"><text fill="#595959" fill-opacity="1" font-family="Calibri,Calibri_MSFontService,sans-serif" font-style="normal" font-variant="normal" font-weight="400" font-stretch="normal" font-size="41" text-anchor="start" direction="ltr" writing-mode="lr-tb" unicode-bidi="normal" text-decoration="none" transform="matrix(1 0 0 1 3547.91 1708)">journalism</text></g><g clip-path="url(#clip22)"><text fill="#595959" fill-opacity="1" font-family="Calibri,Calibri_MSFontService,sans-serif" font-style="normal" font-variant="normal" font-weight="400" font-stretch="normal" font-size="41" text-anchor="start" direction="ltr" writing-mode="lr-tb" unicode-bidi="normal" text-decoration="none" transform="matrix(1 0 0 1 3812.37 1708)">music</text></g><g clip-path="url(#clip23)"><text fill="#595959" fill-opacity="1" font-family="Calibri,Calibri_MSFontService,sans-serif" font-style="normal" font-variant="normal" font-weight="400" font-stretch="normal" font-size="41" text-anchor="start" direction="ltr" writing-mode="lr-tb" unicode-bidi="normal" text-decoration="none" transform="matrix(1 0 0 1 3977.79 1708)">photography</text></g><g clip-path="url(#clip24)"><text fill="#595959" fill-opacity="1" font-family="Calibri,Calibri_MSFontService,sans-serif" font-style="normal" font-variant="normal" font-weight="400" font-stretch="normal" font-size="41" text-anchor="start" direction="ltr" writing-mode="lr-tb" unicode-bidi="normal" text-decoration="none" transform="matrix(1 0 0 1 4224.48 1708)">publishing</text></g><g clip-path="url(#clip25)"><text fill="#595959" fill-opacity="1" font-family="Calibri,Calibri_MSFontService,sans-serif" font-style="normal" font-variant="normal" font-weight="400" font-stretch="normal" font-size="41" text-anchor="start" direction="ltr" writing-mode="lr-tb" unicode-bidi="normal" text-decoration="none" transform="matrix(1 0 0 1 4442.26 1708)">technology</text></g><g clip-path="url(#clip26)"><text fill="#595959" fill-opacity="1" font-family="Calibri,Calibri_MSFontService,sans-serif" font-style="normal" font-variant="normal" font-weight="400" font-stretch="normal" font-size="41" text-anchor="start" direction="ltr" writing-mode="lr-tb" unicode-bidi="normal" text-decoration="none" transform="matrix(1 0 0 1 4697.82 1708)">theater</text></g><g clip-path="url(#clip27)"><text fill="#595959" fill-opacity="1" font-family="Calibri,Calibri_MSFontService,sans-serif" font-style="normal" font-variant="normal" font-weight="400" font-stretch="normal" font-size="64" text-anchor="start" direction="ltr" writing-mode="lr-tb" unicode-bidi="normal" text-decoration="none" transform="matrix(1 0 0 1 3583.3 249)">Parent Category Outcomes</text></g><g clip-path="url(#clip28)"><rect x="4888" y="845" width="23" height="23.0001" fill="#FFC000" fill-opacity="1"/></g><g clip-path="url(#clip29)"><text fill="#595959" fill-opacity="1" font-family="Calibri,Calibri_MSFontService,sans-serif" font-style="normal" font-variant="normal" font-weight="400" font-stretch="normal" font-size="41" text-anchor="start" direction="ltr" writing-mode="lr-tb" unicode-bidi="normal" text-decoration="none" transform="matrix(1 0 0 1 4920.51 866)">successful</text></g><g clip-path="url(#clip30)"><rect x="4888" y="922" width="23" height="23.0001" fill="#A5A5A5" fill-opacity="1"/></g><g clip-path="url(#clip31)"><text fill="#595959" fill-opacity="1" font-family="Calibri,Calibri_MSFontService,sans-serif" font-style="normal" font-variant="normal" font-weight="400" font-stretch="normal" font-size="41" text-anchor="start" direction="ltr" writing-mode="lr-tb" unicode-bidi="normal" text-decoration="none" transform="matrix(1 0 0 1 4920.51 944)">live</text></g><g clip-path="url(#clip32)"><rect x="4888" y="1000" width="23" height="22" fill="#ED7D31" fill-opacity="1"/></g><g clip-path="url(#clip33)"><text fill="#595959" fill-opacity="1" font-family="Calibri,Calibri_MSFontService,sans-serif" font-style="normal" font-variant="normal" font-weight="400" font-stretch="normal" font-size="41" text-anchor="start" direction="ltr" writing-mode="lr-tb" unicode-bidi="normal" text-decoration="none" transform="matrix(1 0 0 1 4920.51 1021)">failed</text></g><g clip-path="url(#clip34)"><rect x="4888" y="1077" width="23" height="23" fill="#4472C4" fill-opacity="1"/></g><g clip-path="url(#clip35)"><text fill="#595959" fill-opacity="1" font-family="Calibri,Calibri_MSFontService,sans-serif" font-style="normal" font-variant="normal" font-weight="400" font-stretch="normal" font-size="41" text-anchor="start" direction="ltr" writing-mode="lr-tb" unicode-bidi="normal" text-decoration="none" transform="matrix(1 0 0 1 4920.51 1098)">canceled</text></g><rect x="2721.5" y="154.5" width="2422" height="1633" stroke="#D9D9D9" stroke-width="3.4375" stroke-linecap="butt" stroke-linejoin="round" stroke-miterlimit="10" stroke-opacity="1" fill="none"/></g></svg>